<?xml version="1.0" encoding="UTF-8" standalone="no"?>
<!-- Created with Inkscape (http://www.inkscape.org/) -->

<svg
   xmlns:dc="http://purl.org/dc/elements/1.1/"
   xmlns:cc="http://creativecommons.org/ns#"
   xmlns:rdf="http://www.w3.org/1999/02/22-rdf-syntax-ns#"
   xmlns:svg="http://www.w3.org/2000/svg"
   xmlns="http://www.w3.org/2000/svg"
   xmlns:sodipodi="http://sodipodi.sourceforge.net/DTD/sodipodi-0.dtd"
   xmlns:inkscape="http://www.inkscape.org/namespaces/inkscape"
   width="210"
   height="210"
   id="svg23577"
   version="1.1"
   inkscape:version="0.48.0 r9654"
   sodipodi:docname="Unknown Blazon.svg">
  <defs
     id="defs23579">
    <inkscape:perspective
       sodipodi:type="inkscape:persp3d"
       inkscape:vp_x="0 : 526.18109 : 1"
       inkscape:vp_y="0 : 1000 : 0"
       inkscape:vp_z="744.09448 : 526.18109 : 1"
       inkscape:persp3d-origin="372.04724 : 350.78739 : 1"
       id="perspective23585" />
    <inkscape:perspective
       id="perspective22305"
       inkscape:persp3d-origin="0.5 : 0.33333333 : 1"
       inkscape:vp_z="1 : 0.5 : 1"
       inkscape:vp_y="0 : 1000 : 0"
       inkscape:vp_x="0 : 0.5 : 1"
       sodipodi:type="inkscape:persp3d" />
  </defs>
  <sodipodi:namedview
     id="base"
     pagecolor="#ffffff"
     bordercolor="#666666"
     borderopacity="1.0"
     inkscape:pageopacity="0.0"
     inkscape:pageshadow="2"
     inkscape:zoom="2.3"
     inkscape:cx="105"
     inkscape:cy="105"
     inkscape:document-units="px"
     inkscape:current-layer="g3351"
     showgrid="false"
     inkscape:window-width="1280"
     inkscape:window-height="701"
     inkscape:window-x="0"
     inkscape:window-y="0"
     inkscape:window-maximized="0"
     fit-margin-top="0"
     fit-margin-left="0"
     fit-margin-right="0"
     fit-margin-bottom="0" />
  <metadata
     id="metadata23582">
    <rdf:RDF>
      <cc:Work
         rdf:about="">
        <dc:format>image/svg+xml</dc:format>
        <dc:type
           rdf:resource="http://purl.org/dc/dcmitype/StillImage" />
        <dc:title />
      </cc:Work>
    </rdf:RDF>
  </metadata>
  <g
     inkscape:label="Layer 1"
     inkscape:groupmode="layer"
     id="layer1"
     transform="translate(-270,-427.40829)">
    <g
       id="g3351">
      <g
         id="g4057"
         transform="matrix(1.7095888,0,0,1.7095888,-266.0958,-377.712)"
         style="stroke-width:1.16987193;stroke-miterlimit:4;stroke-dasharray:none">
        <g
           style="stroke-width:4.67948771;stroke-miterlimit:4;stroke-dasharray:none"
           transform="matrix(0.25,0,0,0.25,281.25,399.27158)"
           id="g3207">
          <path
             sodipodi:nodetypes="csscsscc"
             d="m 171.95898,294.20244 c -1.0759,67.80789 -1.0124,135.62511 0,203.43091 0.9754,65.329 4.2342,116.30951 33.5012,156.17221 35.255,48.0186 93.98843,82.671 169.53993,116.7162 75.5514,-34.0452 134.2848,-68.6976 169.5398,-116.7162 29.2669,-39.8627 32.5257,-90.84321 33.5011,-156.17221 1.0124,-67.8058 1.0759,-135.62302 0,-203.43091 l -406.08203,0 z"
             style="fill:#e6e6e6;fill-opacity:1;stroke:none"
             id="path7014-6-7-28-3-2-4-4-9"
             inkscape:connector-curvature="0" />
          <path
             sodipodi:nodetypes="csscsscc"
             d="m 171.95898,294.20244 c -1.0759,67.80789 -1.0124,135.62511 0,203.43091 0.9754,65.329 4.2342,116.30951 33.5012,156.17221 35.255,48.0186 93.98843,82.671 169.53993,116.7162 75.5514,-34.0452 134.2848,-68.6976 169.5398,-116.7162 29.2669,-39.8627 32.5257,-90.84321 33.5011,-156.17221 1.0124,-67.8058 1.0759,-135.62302 0,-203.43091 l -406.08203,0 z"
             style="fill:none;stroke:#808080;stroke-width:4.67948771000000008;stroke-miterlimit:4;stroke-dasharray:none;stroke-opacity:1"
             id="path7014-6-7-28-3-2-4-4"
             inkscape:connector-curvature="0" />
        </g>
        <path
           inkscape:connector-curvature="0"
           id="path4044"
           d="m 372.901,567.80223 c -1.71353,-0.60718 -4.09344,-2.70262 -4.99159,-4.39496 -0.5509,-1.03806 -0.70226,-1.86938 -0.70661,-3.88102 -0.005,-2.27616 0.1044,-2.75514 0.98606,-4.32 1.10429,-1.95999 3.36789,-3.87879 5.23611,-4.43852 1.5455,-0.46304 4.23907,-0.46304 5.78456,0 2.03063,0.60839 4.19103,2.49084 5.26203,4.58502 0.82636,1.61579 0.96462,2.2378 0.95828,4.31087 -0.006,1.86445 -0.16852,2.72699 -0.70663,3.74365 -0.92881,1.75484 -3.29109,3.79152 -5.12071,4.41494 -1.82254,0.621 -4.91861,0.61177 -6.7015,-0.02 z m -4.58375,-26.95866 c 0,-0.6398 0.18782,-0.9718 0.61259,-1.08288 0.95627,-0.25006 1.5209,-1.71582 2.0633,-5.35622 0.92681,-6.22036 2.23109,-8.82384 8.0525,-16.07362 4.36418,-5.435 5.0849,-6.96147 4.87477,-10.3246 -0.15668,-2.50756 -0.66886,-3.7217 -2.20256,-5.22116 -1.8713,-1.82955 -3.60475,-2.45843 -6.6806,-2.42366 -4.41034,0.0498 -8.38834,1.98181 -10.51395,5.10622 -0.99042,1.45579 -1.05969,1.71757 -0.8905,3.36509 0.17984,1.75131 -0.0985,2.53351 -0.90149,2.53351 -0.40192,0 -10.85205,-11.38833 -10.98778,-11.97428 -0.16249,-0.70144 0.90245,-1.28099 2.18386,-1.18848 1.51288,0.10924 2.04897,-0.17208 4.91405,-2.5787 2.53082,-2.12584 7.58587,-4.77515 10.59581,-5.55318 3.12686,-0.80826 9.43359,-0.97431 12.6042,-0.33186 7.88221,1.59714 13.56831,5.9874 15.61221,12.05424 0.82793,2.45751 0.8251,9.03939 -0.005,11.42064 -0.97186,2.78819 -3.98396,6.966 -9.11471,12.64213 -2.66998,2.95377 -5.15532,5.96015 -5.52298,6.68083 -1.43135,2.80566 -1.0089,6.61095 0.81071,7.30277 0.57678,0.21929 0.81548,0.54653 0.81548,1.11797 l 0,0.80792 -8.16,0 -8.16,0 0,-0.92268 z"
           style="fill:#cccccc;fill-opacity:1;stroke-width:1.16987193000000000;stroke-miterlimit:4;stroke-dasharray:none" />
      </g>
    </g>
  </g>
</svg>
